<svg width="16" height="13" viewBox="0 0 16 13" fill="none" xmlns="http://www.w3.org/2000/svg">
<path d="M5.04 9L3.288 5.82H2.796V9H0.744V0.576H4.188C4.852 0.576 5.416 0.692 5.88 0.924C6.352 1.156 6.704 1.476 6.936 1.884C7.168 2.284 7.284 2.732 7.284 3.228C7.284 3.788 7.124 4.288 6.804 4.728C6.492 5.168 6.028 5.48 5.412 5.664L7.356 9H5.04ZM2.796 4.368H4.068C4.444 4.368 4.724 4.276 4.908 4.092C5.1 3.908 5.196 3.648 5.196 3.312C5.196 2.992 5.1 2.74 4.908 2.556C4.724 2.372 4.444 2.28 4.068 2.28H2.796V4.368ZM10.6241 3.252C10.8241 2.94 11.1001 2.688 11.4521 2.496C11.8041 2.304 12.2161 2.208 12.6881 2.208C13.2401 2.208 13.7401 2.348 14.1881 2.628C14.6361 2.908 14.9881 3.308 15.2441 3.828C15.5081 4.348 15.6401 4.952 15.6401 5.64C15.6401 6.328 15.5081 6.936 15.2441 7.464C14.9881 7.984 14.6361 8.388 14.1881 8.676C13.7401 8.956 13.2401 9.096 12.6881 9.096C12.2241 9.096 11.8121 9 11.4521 8.808C11.1001 8.616 10.8241 8.368 10.6241 8.064V12.192H8.57213V2.304H10.6241V3.252ZM13.5521 5.64C13.5521 5.128 13.4081 4.728 13.1201 4.44C12.8401 4.144 12.4921 3.996 12.0761 3.996C11.6681 3.996 11.3201 4.144 11.0321 4.44C10.7521 4.736 10.6121 5.14 10.6121 5.652C10.6121 6.164 10.7521 6.568 11.0321 6.864C11.3201 7.16 11.6681 7.308 12.0761 7.308C12.4841 7.308 12.8321 7.16 13.1201 6.864C13.4081 6.56 13.5521 6.152 13.5521 5.64Z" fill="black" fill-opacity="0.6"/>
</svg>
